<?xml version="1.0" encoding="UTF-8" standalone="no"?>
<!-- Created with Inkscape (http://www.inkscape.org/) -->

<svg
   xmlns:dc="http://purl.org/dc/elements/1.1/"
   xmlns:cc="http://creativecommons.org/ns#"
   xmlns:rdf="http://www.w3.org/1999/02/22-rdf-syntax-ns#"
   xmlns:svg="http://www.w3.org/2000/svg"
   xmlns="http://www.w3.org/2000/svg"
   xmlns:sodipodi="http://sodipodi.sourceforge.net/DTD/sodipodi-0.dtd"
   xmlns:inkscape="http://www.inkscape.org/namespaces/inkscape"
   width="4.9003038mm"
   height="4.9003038mm"
   viewBox="0 0 4.9003038 4.9003038"
   version="1.1"
   id="svg7216"
   inkscape:version="0.92.2 (5c3e80d, 2017-08-06)"
   sodipodi:docname="floor2.svg">
  <defs
     id="defs7210" />
  <sodipodi:namedview
     id="base"
     pagecolor="#ffffff"
     bordercolor="#666666"
     borderopacity="1.0"
     inkscape:pageopacity="0.0"
     inkscape:pageshadow="2"
     inkscape:zoom="77.156357"
     inkscape:cx="9.2604229"
     inkscape:cy="9.2604042"
     inkscape:document-units="mm"
     inkscape:current-layer="layer1"
     showgrid="false"
     inkscape:window-width="3200"
     inkscape:window-height="1689"
     inkscape:window-x="0"
     inkscape:window-y="55"
     inkscape:window-maximized="1" />
  <metadata
     id="metadata7213">
    <rdf:RDF>
      <cc:Work
         rdf:about="">
        <dc:format>image/svg+xml</dc:format>
        <dc:type
           rdf:resource="http://purl.org/dc/dcmitype/StillImage" />
        <dc:title></dc:title>
      </cc:Work>
    </rdf:RDF>
  </metadata>
  <g
     inkscape:label="Layer 1"
     inkscape:groupmode="layer"
     id="layer1"
     transform="translate(198.24182,312.47992)">
    <g
       id="g6711"
       transform="matrix(0.26458333,0,0,0.26458333,-221.34325,-313.17996)">
      <g
         transform="scale(0.26458333)"
         id="use6709">
        <path
           style="fill:#a4b7b8;stroke:none"
           inkscape:connector-curvature="0"
           id="path7231"
           d="m 330,71.1 q 13.65,7.15 26.05,3.85 4.55,-1.25 8.95,-3.85 18.7,-9.8 35,0 v -6.7 q -16.3,-9.8 -35,0 -4.4,2.6 -8.95,3.85 -12.4,3.3 -26.05,-3.85 v 6.7 m 70,-31.7 v -6 q -16.3,-9.8 -35,0 -4.4,2.6 -8.95,3.85 -12.4,3.3 -26.05,-3.85 v 6 q 13.65,7.15 26.05,3.85 4.55,-1.25 8.95,-3.85 18.7,-9.8 35,0 m 0,-15 v -8 q -16.3,-9.8 -35,0 -4.4,2.6 -8.95,3.85 -12.4,3.3 -26.05,-3.85 v 8 q 13.65,7.15 26.05,3.85 4.55,-1.25 8.95,-3.85 18.7,-9.8 35,0 z" />
        <path
           style="fill:#b5cacb;stroke:none"
           inkscape:connector-curvature="0"
           id="path7233"
           d="M 356.05,74.95 Q 343.65,78.25 330,71.1 V 80 h 70 v -8.9 q -16.3,-9.8 -35,0 -4.4,2.6 -8.95,3.85 M 400,48.4 v -9 q -16.3,-9.8 -35,0 -4.4,2.6 -8.95,3.85 -12.4,3.3 -26.05,-3.85 v 9 q 13.65,7.15 26.05,3.85 4.55,-1.25 8.95,-3.85 18.7,-9.8 35,0 m 0,-32 V 10 h -70 v 6.4 q 13.65,7.15 26.05,3.85 4.55,-1.25 8.95,-3.85 18.7,-9.8 35,0 z" />
        <path
           style="fill:#acc0c1;stroke:none"
           inkscape:connector-curvature="0"
           id="path7235"
           d="m 400,48.4 q -16.3,-9.8 -35,0 -4.4,2.6 -8.95,3.85 -12.4,3.3 -26.05,-3.85 v 16 q 13.65,7.15 26.05,3.85 4.55,-1.25 8.95,-3.85 18.7,-9.8 35,0 v -16 M 365,28.9 q 1.1,-0.45 2.15,-0.85 16.4,-6.1 30.95,0 0.95,0.4 1.9,0.85 v -4.5 q -16.3,-9.8 -35,0 -4.4,2.6 -8.95,3.85 -12.4,3.3 -26.05,-3.85 v 4.5 q 13.65,5.65 26.05,3.05 Q 360.6,31 365,28.9 Z" />
        <path
           style="fill:#b9cfd0;stroke:none"
           inkscape:connector-curvature="0"
           id="path7237"
           d="m 367.15,28.05 q -1.05,0.4 -2.15,0.85 -4.4,2.1 -8.95,3.05 -12.4,2.6 -26.05,-3.05 v 4.5 q 13.65,7.15 26.05,3.85 4.55,-1.25 8.95,-3.85 18.7,-9.8 35,0 v -4.5 q -0.95,-0.45 -1.9,-0.85 -14.55,-6.1 -30.95,0 z" />
      </g>
    </g>
  </g>
</svg>
