<?xml version="1.0" encoding="UTF-8" standalone="no"?>
<!-- Created with Inkscape (http://www.inkscape.org/) -->

<svg
   xmlns:dc="http://purl.org/dc/elements/1.1/"
   xmlns:cc="http://creativecommons.org/ns#"
   xmlns:rdf="http://www.w3.org/1999/02/22-rdf-syntax-ns#"
   xmlns:svg="http://www.w3.org/2000/svg"
   xmlns="http://www.w3.org/2000/svg"
   xmlns:sodipodi="http://sodipodi.sourceforge.net/DTD/sodipodi-0.dtd"
   xmlns:inkscape="http://www.inkscape.org/namespaces/inkscape"
   width="10.417665mm"
   height="3.7796743mm"
   viewBox="0 0 10.417665 3.7796743"
   version="1.1"
   id="svg4893"
   inkscape:version="0.92.2 (5c3e80d, 2017-08-06)"
   sodipodi:docname="character.svg">
  <defs
     id="defs4887" />
  <sodipodi:namedview
     id="base"
     pagecolor="#ffffff"
     bordercolor="#666666"
     borderopacity="1.0"
     inkscape:pageopacity="0.0"
     inkscape:pageshadow="2"
     inkscape:zoom="75.989512"
     inkscape:cx="19.686926"
     inkscape:cy="7.1426812"
     inkscape:document-units="mm"
     inkscape:current-layer="layer1"
     showgrid="false"
     inkscape:window-width="3200"
     inkscape:window-height="1689"
     inkscape:window-x="0"
     inkscape:window-y="55"
     inkscape:window-maximized="1" />
  <metadata
     id="metadata4890">
    <rdf:RDF>
      <cc:Work
         rdf:about="">
        <dc:format>image/svg+xml</dc:format>
        <dc:type
           rdf:resource="http://purl.org/dc/dcmitype/StillImage" />
        <dc:title></dc:title>
      </cc:Work>
    </rdf:RDF>
  </metadata>
  <g
     inkscape:label="Layer 1"
     inkscape:groupmode="layer"
     id="layer1"
     transform="translate(47.54217,241.61603)">
    <g
       id="g4757"
       transform="translate(835.42435,-180.67262)">
      <g
         id="g2188"
         transform="matrix(0.26458333,0,0,0.26458333,-891.73097,-102.45654)">
        <g
           id="use2186"
           transform="scale(0.26458333)">
          <path
             d="m 258.25,593.4 q -7.4,-0.7 -14.6,-0.15 -0.05,0 -0.1,0.05 -18.9,2.45 -17.5,16 0,0.05 0,0.15 l 0.15,2.15 q 0.1,1.5 0.85,2.5 -0.05,1.5 0,3.15 0.05,3.7 0.65,7.35 0,0.1 0.05,0.2 v 0.05 q 0.05,0.5 0.15,0.9 0,0.05 0.05,0.1 v 0.1 q 0.2,0.8 0.55,1.45 0.3,0.55 0.75,1 -0.95,2.55 -0.95,6 -1.55,0.8 -2.45,2.35 l -0.05,0.1 -0.05,0.05 v 0.05 q -0.1,0.1 -0.15,0.25 -0.05,0.1 -0.1,0.2 -0.85,1.55 0.65,4.05 0.1,0.2 0.3,0.4 0.1,0.1 0.2,0.2 0.25,0.3 0.55,0.7 0.05,0.1 0.15,0.2 1.25,1.25 3.05,2.3 h 0.05 q 1.85,1.05 3.5,1.45 0.05,0 0.15,0.05 0.55,0.1 1.1,0.2 0.2,0 0.35,0 1.25,0 2.15,-0.2 0.15,-0.05 0.3,-0.1 0.95,-0.35 1.5,-0.9 0.2,-0.2 0.4,-0.6 0.1,-0.15 0.15,-0.3 0.50977,-0.94922 0.7,-1.9 h 12.9 q 0.14238,0.94883 0.65,1.85 0.05,0.15 0.15,0.3 0.15,0.3 0.35,0.5 0.95,1.45 3.7,1.3 0.05,0 0.15,0 0.05,0 0.15,0 0.2,0 0.4,-0.05 0.45,-0.1 1.05,-0.15 0.05,-0.05 0.2,-0.05 1.7,-0.5 3.5,-1.5 1.85,-1.05 3.05,-2.3 0.05,-0.1 0.1,-0.15 0.35,-0.45 0.7,-0.8 0.15,-0.2 0.25,-0.35 0.6,-1.15 0.85,-1.95 0.05,-0.1 0.05,-0.2 0.2,-1 0,-1.75 -0.05,-0.3 -0.2,-0.55 -0.05,-0.1 -0.1,-0.15 l -0.05,-0.1 -0.05,-0.05 -0.05,-0.1 q -1.05,-1.85 -2.95,-2.6 0,-0.6 -0.05,-1.15 -0.2,-3 -1.15,-5.2 1.3,-1.05 1.2,-2.55 0,-0.3 0,-0.6 0.15,-0.05 0.3,-0.1 0.05,0 0.15,-0.05 2.45,-1 2.1,-2.65 0,-1.95 -1.4,-3.4 l -0.05,-0.05 q -0.75,-0.7 -1.55,-1.05 0,-0.05 0,-0.1 v -0.05 q 0.05,-1.65 0,-3.3 l 4,-0.25 q 2.4,-0.1 3.5,-1.2 1.55,-1.2 1.4,-3.5 -0.05,-0.5 -0.25,-0.9 -0.3,-0.45 -0.7,-0.7 -3.55,-2.25 -7.15,-2.65 l -0.25,-5.05 q 0,-0.45 -0.2,-0.75 -1.15,-5 -7.2,-5.45 z"
             id="path4450"
             inkscape:connector-curvature="0"
             style="fill:#694c39;stroke:none" />
        </g>
      </g>
      <g
         id="g2192"
         transform="matrix(0.26458333,0,0,0.26458333,-891.73097,-102.45654)">
        <g
           id="use2190"
           transform="scale(0.26458333)">
          <path
             d="m 227.35,638.15 q -0.35,0.85 0.5,2.25 0.1,0.1 0.2,0.2 0.3,0.4 0.7,0.9 1.1,1.1 2.65,2 1.6,0.9 3,1.25 0.6,0.1 1.15,0.2 1,0 1.7,-0.15 0.5,-0.2 0.8,-0.5 0.05,-0.05 0.1,-0.2 0.05,-0.05 0.1,-0.15 1.05,-1.85 0.2,-4 -0.8,-2.2 -3,-3.45 -2.2,-1.3 -4.5,-0.9 -2.35,0.35 -3.4,2.2 -0.05,0.1 -0.1,0.15 -0.05,0.15 -0.1,0.2 z"
             id="path4400"
             inkscape:connector-curvature="0"
             style="fill:#333333;stroke:none" />
        </g>
      </g>
      <g
         id="g2196"
         transform="matrix(0.26458333,0,0,0.26458333,-891.73097,-102.45654)">
        <g
           id="use2194"
           transform="scale(0.26458333)">
          <path
             d="m 258.9,636.4 q -2.2,1.3 -3,3.5 -0.85,2.15 0.2,4 0.05,0.1 0.1,0.15 0.05,0.15 0.1,0.2 0.55,0.75 2.2,0.65 0.1,0 0.3,0 0.5,-0.1 1.1,-0.2 1.5,-0.4 3.05,-1.3 1.6,-0.9 2.6,-1.95 0.4,-0.5 0.75,-0.9 0.5,-0.9 0.7,-1.55 0.1,-0.5 0,-0.9 -0.05,-0.05 -0.1,-0.2 -0.05,-0.05 -0.1,-0.15 -1.05,-1.85 -3.4,-2.2 -2.3,-0.4 -4.5,0.85 z"
             id="path4404"
             inkscape:connector-curvature="0"
             style="fill:#333333;stroke:none" />
        </g>
      </g>
      <g
         id="g2200"
         transform="matrix(0.26458333,0,0,0.26458333,-891.73097,-102.45654)">
        <g
           id="use2198"
           transform="scale(0.26458333)">
          <path
             d="m 259.1,640.95 q 3.4,0 4.1,-2.95 0.05,-0.2 0.1,-0.4 0,-0.15 0.05,-0.35 0.05,-0.45 0.15,-0.95 v -0.05 q 0.1,-1.7 0,-3.2 -11.85,0 -15.05,-7.65 h -15 q -3.65,3.55 -3.1,10.9 0.05,0.65 0.2,1.3 0.05,0.45 0.15,0.75 0.15,0.55 0.4,0.95 1,1.65 3.5,1.65 z"
             id="path4390"
             inkscape:connector-curvature="0"
             style="fill:#e74c3c;stroke:none" />
          <path
             d="m 260.3,625.4 h -11.85 q 3.2,7.65 15.05,7.65 -0.35,-5.1 -3.2,-7.65 z"
             id="path4392"
             inkscape:connector-curvature="0"
             style="fill:#2ecc71;stroke:none" />
        </g>
      </g>
      <g
         id="g2204"
         transform="matrix(0.26458333,0,0,0.26458333,-891.73097,-102.45654)">
        <g
           id="use2202"
           transform="scale(0.26458333)">
          <path
             d="m 245.2,634.75 q 1.85,-1.1 3.35,-1.65 1.55,-0.55 0.95,-1.95 -0.2,-0.3 -0.3,-0.55 -1.9,-3.5 -4.15,-4.5 -2,-0.55 -3.85,0.25 -0.9,0.45 -1.4,0.95 -0.9,0.85 -1.4,2.2 -0.15,0.35 -0.2,0.7 -0.3,2.45 1.5,4.9 2.25,2.6 2.9,1.8 0.75,-0.95 2.6,-2.15 z"
             id="path4396"
             inkscape:connector-curvature="0"
             style="fill:#2ecc71;stroke:none" />
        </g>
      </g>
      <g
         id="g2208"
         transform="matrix(0.26458333,0,0,0.26458333,-891.73097,-102.45654)">
        <g
           id="use2206"
           transform="scale(0.26458333)">
          <path
             d="m 248.75,630.1 q -0.1,-0.05 -0.1,-0.15 -0.3,-0.05 -0.6,-0.25 -1.7,-0.85 -3.5,-0.35 -2.4,0.65 -3.55,2.6 -0.45,0.9 -0.55,1.65 -0.25,1.25 0.1,2.6 0.45,1.85 2.1,2.95 0.25,0.1 0.5,0.25 0.1,0.15 0.25,0.15 1.15,0.65 2.65,-0.3 1.6,-0.85 2.7,-2.9 1.2,-1.85 1.15,-3.85 -0.05,-1.75 -1.05,-2.35 -0.05,-0.05 -0.1,-0.05 z"
             id="path4550"
             inkscape:connector-curvature="0"
             style="fill:#ffe0b1;stroke:none" />
        </g>
      </g>
      <g
         id="g2212"
         transform="matrix(0.26458333,0,0,0.26458333,-891.73097,-102.45654)">
        <g
           id="use2210"
           transform="scale(0.26458333)">
          <path
             d="m 229.7,607.6 q -0.5,3.2 -0.65,6.4 -0.05,1.55 0,3.15 0.05,3.7 0.65,7.35 0,0.05 0,0.1 16.4,-2.1 14.7,-20.8 h -10.65 q -1.9,0 -2.95,1.1 -0.9,0.95 -1.1,2.7 z"
             id="path4554"
             inkscape:connector-curvature="0"
             style="fill:#694c39;stroke:none" />
          <path
             d="m 263.05,613.35 q -0.2,-2.9 -0.55,-5.85 -0.25,-1.65 -1.1,-2.6 -1.05,-1.1 -3.1,-1.1 h -13.9 q 1.7,18.7 -14.7,20.8 0.05,0.4 0.15,0.7 0.15,0.65 0.4,1.1 1,1.8 3.5,1.8 h 24.55 q 3.45,0 4.15,-3.25 0.05,-0.25 0.1,-0.45 0,-0.2 0.05,-0.4 0.4,-3.1 0.5,-6.35 0,-0.3 0,-0.6 0.05,-1.9 -0.05,-3.8 z"
             id="path4556"
             inkscape:connector-curvature="0"
             style="fill:#ffe0b1;stroke:none" />
        </g>
      </g>
      <g
         id="g2216"
         transform="matrix(0.26458333,0,0,0.26458333,-891.73097,-102.45654)">
        <g
           id="use2214"
           transform="scale(0.26458333)">
          <path
             d="m 254.05,617.85 q 0,-1.3 -0.6,-2.1 -0.55,-0.9 -1.4,-0.9 -0.8,0 -1.4,0.9 -0.6,0.8 -0.6,2.1 0,1.35 0.6,2.15 0.6,0.9 1.4,0.9 0.85,0 1.4,-0.9 0.6,-0.8 0.6,-2.15 z"
             id="path4560"
             inkscape:connector-curvature="0"
             style="fill:#694c39;stroke:none" />
        </g>
      </g>
      <g
         id="g2220"
         transform="matrix(0.26458333,0,0,0.26458333,-891.73097,-102.45654)">
        <g
           id="use2218"
           transform="scale(0.26458333)">
          <path
             d="m 260.05,621.8 q 0,0.45 0.9,0.8 0.9,0.3 2.15,0.3 1.2,0 2.15,-0.3 0.85,-0.35 0.85,-0.8 0,-1.15 -0.85,-2 -0.95,-0.9 -2.15,-0.9 -1.25,0 -2.15,0.9 -0.8,0.85 -0.9,2 z"
             id="path4512"
             inkscape:connector-curvature="0"
             style="fill:#ffe0b1;stroke:none" />
        </g>
      </g>
      <g
         id="g2224"
         transform="matrix(0.26458333,0,0,0.26458333,-891.73097,-102.45654)">
        <g
           id="use2222"
           transform="scale(0.26458333)">
          <path
             d="m 255.1,626.4 q 2.1,0.5 4.95,0.5 0.3,0 0.6,0 1.15,-0.05 2,-0.5 0.9,-0.45 0.9,-1.2 0,-1.75 -0.9,-3 -0.85,-1.15 -2,-1.25 -0.3,-0.05 -0.6,-0.05 -2.85,0 -4.95,1.3 -1.85,1.25 -2.05,3 0,0.75 2.05,1.2 z"
             id="path4516"
             inkscape:connector-curvature="0"
             style="fill:#694c39;stroke:none" />
        </g>
      </g>
      <g
         id="g2228"
         transform="matrix(0.26458333,0,0,0.26458333,-891.73097,-102.45654)">
        <g
           id="use2226"
           transform="scale(0.26458333)">
          <path
             d="m 272,609 q -4,-2.5 -8,-2.5 -4.1,0.05 -7.9,0.3 -15.9,1.05 -27.9,4.65 0.1,2.45 3.4,2.25 l 37.35,-2.1 q 3.2,-0.15 3.05,-2.6 z"
             id="path4520"
             inkscape:connector-curvature="0"
             style="fill:#2ecc71;stroke:none" />
          <path
             d="m 264,606.5 -0.3,-6 q -3.3,0.15 -5.55,2.2 -1.9,1.75 -2.05,4.1 3.8,-0.25 7.9,-0.3 z"
             id="path4522"
             inkscape:connector-curvature="0"
             style="fill:#ffffff;stroke:none" />
          <path
             d="m 263.7,600.5 -0.05,-0.8 h -0.05 q -0.8,-3.95 -5.5,-4.3 -7.25,-0.7 -14.3,-0.15 -16.7,2.2 -15.75,13.85 0,0.1 0,0.2 l 0.15,2.15 q 12,-3.6 27.9,-4.65 0.15,-2.35 2.05,-4.1 2.25,-2.05 5.55,-2.2 z"
             id="path4524"
             inkscape:connector-curvature="0"
             style="fill:#28b162;stroke:none" />
        </g>
      </g>
      <g
         id="g2232"
         transform="matrix(0.26458333,0,0,0.26458333,-891.73097,-102.45654)">
        <g
           id="use2230"
           transform="scale(0.26458333)">
          <path
             d="m 236.4,616.95 q -1.3,1.2 -1.3,2.85 v 0.15 q 0,1.65 1.3,2.7 1.3,1.25 3.1,1.25 1.85,0 3.2,-1.25 1.3,-1.1 1.3,-2.7 0,-1.8 -1.3,-3 -1.35,-1.1 -3.2,-1.1 -1.8,0 -3.1,1.1 z"
             id="path4528"
             inkscape:connector-curvature="0"
             style="fill:#ffe0b1;stroke:none" />
        </g>
      </g>
    </g>
    <g
       id="g4676"
       transform="translate(837.10467,-180.67262)">
      <g
         id="g2236"
         transform="matrix(0.26458333,0,0,0.26458333,-891.73097,-102.45654)">
        <g
           id="use2234"
           transform="scale(0.26458333)">
          <path
             d="m 184.25,593.4 q -7.4,-0.7 -14.6,-0.15 -0.05,0 -0.1,0.05 -18.9,2.45 -17.5,16 0,0.05 0,0.15 l 0.15,2.15 q 0.1,1.5 0.85,2.5 -0.05,1.5 0,3.15 0.05,3.7 0.65,7.35 0,0.1 0.05,0.2 v 0.05 q 0.05,0.5 0.15,0.9 0,0.05 0.05,0.1 v 0.1 q 0.2,0.8 0.55,1.45 0.3,0.55 0.75,1 -0.95,2.55 -0.95,6 -1.55,0.8 -2.45,2.35 l -0.05,0.1 -0.05,0.05 v 0.05 q -0.1,0.1 -0.15,0.25 -0.05,0.1 -0.1,0.2 -0.85,1.55 0.65,4.05 0.1,0.2 0.3,0.4 0.1,0.1 0.2,0.2 0.25,0.3 0.55,0.7 0.05,0.1 0.15,0.2 1.25,1.25 3.05,2.3 h 0.05 q 1.85,1.05 3.5,1.45 0.05,0 0.15,0.05 0.55,0.1 1.1,0.2 0.2,0 0.35,0 1.25,0 2.15,-0.2 0.15,-0.05 0.3,-0.1 0.95,-0.35 1.5,-0.9 0.2,-0.2 0.4,-0.6 0.1,-0.15 0.15,-0.3 0.50977,-0.94922 0.7,-1.9 h 12.9 q 0.14238,0.94883 0.65,1.85 0.05,0.15 0.15,0.3 0.15,0.3 0.35,0.5 0.95,1.45 3.7,1.3 0.05,0 0.15,0 0.05,0 0.15,0 0.2,0 0.4,-0.05 0.45,-0.1 1.05,-0.15 0.05,-0.05 0.2,-0.05 1.7,-0.5 3.5,-1.5 1.85,-1.05 3.05,-2.3 0.05,-0.1 0.1,-0.15 0.35,-0.45 0.7,-0.8 0.15,-0.2 0.25,-0.35 0.6,-1.15 0.85,-1.95 0.05,-0.1 0.05,-0.2 0.2,-1 0,-1.75 -0.05,-0.3 -0.2,-0.55 -0.05,-0.1 -0.1,-0.15 l -0.05,-0.1 -0.05,-0.05 -0.05,-0.1 q -1.05,-1.85 -2.95,-2.6 0,-0.6 -0.05,-1.15 -0.2,-3 -1.15,-5.2 1.3,-1.05 1.2,-2.55 0,-0.3 0,-0.6 0.15,-0.05 0.3,-0.1 0.05,0 0.15,-0.05 2.45,-1 2.1,-2.65 0,-1.95 -1.4,-3.4 l -0.05,-0.05 q -0.75,-0.7 -1.55,-1.05 0,-0.05 0,-0.1 v -0.05 q 0.05,-1.65 0,-3.3 l 4,-0.25 q 2.4,-0.1 3.5,-1.2 1.55,-1.2 1.4,-3.5 -0.05,-0.5 -0.25,-0.9 -0.3,-0.45 -0.7,-0.7 -3.55,-2.25 -7.15,-2.65 l -0.25,-5.05 q 0,-0.45 -0.2,-0.75 -1.15,-5 -7.2,-5.45 z"
             id="path4532"
             inkscape:connector-curvature="0"
             style="fill:#694c39;stroke:none" />
        </g>
      </g>
      <g
         id="g2240"
         transform="matrix(0.26458333,0,0,0.26458333,-891.73097,-102.45654)">
        <g
           id="use2238"
           transform="scale(0.26458333)">
          <path
             d="m 153.35,638.15 q -0.35,0.85 0.5,2.25 0.1,0.1 0.2,0.2 0.3,0.4 0.7,0.9 1.1,1.1 2.65,2 1.6,0.9 3,1.25 0.6,0.1 1.15,0.2 1,0 1.7,-0.15 0.5,-0.2 0.8,-0.5 0.05,-0.05 0.1,-0.2 0.05,-0.05 0.1,-0.15 1.05,-1.85 0.2,-4 -0.8,-2.2 -3,-3.45 -2.2,-1.3 -4.5,-0.9 -2.35,0.35 -3.4,2.2 -0.05,0.1 -0.1,0.15 -0.05,0.15 -0.1,0.2 z"
             id="path4454"
             inkscape:connector-curvature="0"
             style="fill:#333333;stroke:none" />
        </g>
      </g>
      <g
         id="g2244"
         transform="matrix(0.26458333,0,0,0.26458333,-891.73097,-102.45654)">
        <g
           id="use2242"
           transform="scale(0.26458333)">
          <path
             d="m 192.3,640.55 q 0.5,-0.9 0.7,-1.55 0.1,-0.5 0,-0.9 -0.05,-0.05 -0.1,-0.2 -0.05,-0.05 -0.1,-0.15 -1.05,-1.85 -3.4,-2.2 -2.3,-0.4 -4.5,0.85 -2.2,1.3 -3,3.5 -0.85,2.15 0.2,4 0.05,0.1 0.1,0.15 0.05,0.15 0.1,0.2 0.55,0.75 2.2,0.65 0.1,0 0.3,0 0.5,-0.1 1.1,-0.2 1.5,-0.4 3.05,-1.3 1.6,-0.9 2.6,-1.95 0.4,-0.5 0.75,-0.9 z"
             id="path4458"
             inkscape:connector-curvature="0"
             style="fill:#333333;stroke:none" />
        </g>
      </g>
      <g
         id="g2248"
         transform="matrix(0.26458333,0,0,0.26458333,-891.73097,-102.45654)">
        <g
           id="use2246"
           transform="scale(0.26458333)">
          <path
             d="m 189.5,633.05 q -0.35,-5.1 -3.2,-7.65 h -11.85 q 3.2,7.65 15.05,7.65 z"
             id="path4462"
             inkscape:connector-curvature="0"
             style="fill:#2ecc71;stroke:none" />
          <path
             d="m 157.1,639.3 q 1,1.65 3.5,1.65 h 24.5 q 3.4,0 4.1,-2.95 0.05,-0.2 0.1,-0.4 0,-0.15 0.05,-0.35 0.05,-0.45 0.15,-0.95 v -0.05 q 0.1,-1.7 0,-3.2 -11.85,0 -15.05,-7.65 h -15 q -3.65,3.55 -3.1,10.9 0.05,0.65 0.2,1.3 0.05,0.45 0.15,0.75 0.15,0.55 0.4,0.95 z"
             id="path4464"
             inkscape:connector-curvature="0"
             style="fill:#e74c3c;stroke:none" />
        </g>
      </g>
      <g
         id="g2252"
         transform="matrix(0.26458333,0,0,0.26458333,-891.73097,-102.45654)">
        <g
           id="use2250"
           transform="scale(0.26458333)">
          <path
             d="m 160.45,630.1 q -1.15,3.25 -0.1,3.45 1.2,0.15 3.15,1.2 1.9,1 3.15,2.05 1.2,1.05 2.1,-0.2 0.15,-0.3 0.35,-0.5 2.1,-3.35 1.85,-5.85 -0.55,-2 -2.15,-3.2 -0.8,-0.55 -1.55,-0.75 -1.15,-0.35 -2.55,-0.1 -0.45,0.05 -0.8,0.2 -2.2,0.95 -3.45,3.7 z"
             id="path4468"
             inkscape:connector-curvature="0"
             style="fill:#2ecc71;stroke:none" />
        </g>
      </g>
      <g
         id="g2256"
         transform="matrix(0.26458333,0,0,0.26458333,-891.73097,-102.45654)">
        <g
           id="use2254"
           transform="scale(0.26458333)">
          <path
             d="m 159.95,631.4 q -1.4,1.4 -1.5,3.3 0,0.25 0,0.55 -0.05,0.2 0,0.3 0.05,1.35 1.6,2.15 1.55,1 3.85,0.9 2.2,0.1 3.9,-0.95 1.5,-0.85 1.5,-2.1 0.05,-0.05 0,-0.1 0,-0.1 0.05,-0.15 -0.05,-0.3 -0.1,-0.65 -0.05,-1.9 -1.4,-3.2 -1.7,-1.75 -4,-1.75 -1.05,0 -1.75,0.35 -1.15,0.4 -2.15,1.35 z"
             id="path4472"
             inkscape:connector-curvature="0"
             style="fill:#ffe0b1;stroke:none" />
        </g>
      </g>
      <g
         id="g2260"
         transform="matrix(0.26458333,0,0,0.26458333,-891.73097,-102.45654)">
        <g
           id="use2258"
           transform="scale(0.26458333)">
          <path
             d="m 156.25,626.4 q 1,1.8 3.5,1.8 h 24.55 q 3.45,0 4.15,-3.25 0.05,-0.25 0.1,-0.45 0,-0.2 0.05,-0.4 0.4,-3.1 0.5,-6.35 0,-0.3 0,-0.6 0.05,-1.9 -0.05,-3.8 -0.2,-2.9 -0.55,-5.85 -0.25,-1.65 -1.1,-2.6 -1.05,-1.1 -3.1,-1.1 h -13.9 q 1.7,18.7 -14.7,20.8 0.05,0.4 0.15,0.7 0.15,0.65 0.4,1.1 z"
             id="path4476"
             inkscape:connector-curvature="0"
             style="fill:#ffe0b1;stroke:none" />
          <path
             d="m 155.7,607.6 q -0.5,3.2 -0.65,6.4 -0.05,1.55 0,3.15 0.05,3.7 0.65,7.35 0,0.05 0,0.1 16.4,-2.1 14.7,-20.8 h -10.65 q -1.9,0 -2.95,1.1 -0.9,0.95 -1.1,2.7 z"
             id="path4478"
             inkscape:connector-curvature="0"
             style="fill:#694c39;stroke:none" />
        </g>
      </g>
      <g
         id="g2264"
         transform="matrix(0.26458333,0,0,0.26458333,-891.73097,-102.45654)">
        <g
           id="use2262"
           transform="scale(0.26458333)">
          <path
             d="m 176.65,620 q 0.6,0.9 1.4,0.9 0.85,0 1.4,-0.9 0.6,-0.8 0.6,-2.15 0,-1.3 -0.6,-2.1 -0.55,-0.9 -1.4,-0.9 -0.8,0 -1.4,0.9 -0.6,0.8 -0.6,2.1 0,1.35 0.6,2.15 z"
             id="path4482"
             inkscape:connector-curvature="0"
             style="fill:#694c39;stroke:none" />
        </g>
      </g>
      <g
         id="g2268"
         transform="matrix(0.26458333,0,0,0.26458333,-891.73097,-102.45654)">
        <g
           id="use2266"
           transform="scale(0.26458333)">
          <path
             d="m 186.05,621.8 q 0,0.45 0.9,0.8 0.9,0.3 2.15,0.3 1.2,0 2.15,-0.3 0.85,-0.35 0.85,-0.8 0,-1.15 -0.85,-2 -0.95,-0.9 -2.15,-0.9 -1.25,0 -2.15,0.9 -0.8,0.85 -0.9,2 z"
             id="path4486"
             inkscape:connector-curvature="0"
             style="fill:#ffe0b1;stroke:none" />
        </g>
      </g>
      <g
         id="g2272"
         transform="matrix(0.26458333,0,0,0.26458333,-891.73097,-102.45654)">
        <g
           id="use2270"
           transform="scale(0.26458333)">
          <path
             d="m 179.05,625.2 q 0,0.75 2.05,1.2 2.1,0.5 4.95,0.5 0.3,0 0.6,0 1.15,-0.05 2,-0.5 0.9,-0.45 0.9,-1.2 0,-1.75 -0.9,-3 -0.85,-1.15 -2,-1.25 -0.3,-0.05 -0.6,-0.05 -2.85,0 -4.95,1.3 -1.85,1.25 -2.05,3 z"
             id="path4490"
             inkscape:connector-curvature="0"
             style="fill:#694c39;stroke:none" />
        </g>
      </g>
      <g
         id="g2276"
         transform="matrix(0.26458333,0,0,0.26458333,-891.73097,-102.45654)">
        <g
           id="use2274"
           transform="scale(0.26458333)">
          <path
             d="m 190,606.5 -0.3,-6 q -3.3,0.15 -5.55,2.2 -1.9,1.75 -2.05,4.1 3.8,-0.25 7.9,-0.3 z"
             id="path4568"
             inkscape:connector-curvature="0"
             style="fill:#ffffff;stroke:none" />
          <path
             d="m 154.05,609.3 0.15,2.15 q 12,-3.6 27.9,-4.65 0.15,-2.35 2.05,-4.1 2.25,-2.05 5.55,-2.2 l -0.05,-0.8 h -0.05 q -0.8,-3.95 -5.5,-4.3 -7.25,-0.7 -14.3,-0.15 -16.7,2.2 -15.75,13.85 0,0.1 0,0.2 z"
             id="path4570"
             inkscape:connector-curvature="0"
             style="fill:#28b162;stroke:none" />
          <path
             d="m 154.2,611.45 q 0.1,2.45 3.4,2.25 l 37.35,-2.1 q 3.2,-0.15 3.05,-2.6 -4,-2.5 -8,-2.5 -4.1,0.05 -7.9,0.3 -15.9,1.05 -27.9,4.65 z"
             id="path4572"
             inkscape:connector-curvature="0"
             style="fill:#2ecc71;stroke:none" />
        </g>
      </g>
      <g
         id="g2280"
         transform="matrix(0.26458333,0,0,0.26458333,-891.73097,-102.45654)">
        <g
           id="use2278"
           transform="scale(0.26458333)">
          <path
             d="m 161.1,619.8 v 0.15 q 0,1.65 1.3,2.7 1.3,1.25 3.1,1.25 1.85,0 3.2,-1.25 1.3,-1.1 1.3,-2.7 0,-1.8 -1.3,-3 -1.35,-1.1 -3.2,-1.1 -1.8,0 -3.1,1.1 -1.3,1.2 -1.3,2.85 z"
             id="path4576"
             inkscape:connector-curvature="0"
             style="fill:#ffe0b1;stroke:none" />
        </g>
      </g>
    </g>
    <g
       transform="translate(838.73172,-180.67262)"
       id="g4715">
      <g
         id="g2284"
         transform="matrix(0.26458333,0,0,0.26458333,-891.73097,-102.45654)">
        <g
           id="use2282"
           transform="scale(0.26458333)">
          <path
             d="m 110.25,593.4 q -7.4,-0.7 -14.6,-0.15 -0.05,0 -0.1,0.05 -18.9,2.45 -17.5,16 0,0.05 0,0.15 l 0.15,2.15 q 0.1,1.5 0.85,2.5 -0.05,1.5 0,3.15 0.05,3.7 0.65,7.35 0,0.1 0.05,0.2 v 0.05 q 0.05,0.5 0.15,0.9 0,0.05 0.05,0.1 v 0.1 q 0.2,0.8 0.55,1.45 0.3,0.55 0.75,1 -1.25,3.3 -0.9,8.05 0.05,0.7 0.2,1.4 0.1,0.65 0.25,1.15 0.25,0.75 0.6,1.35 1.45,2.6 5.2,2.6 h 3.15 q 0.15,1.65 2.65,2.95 0.2,0.1 0.55,0.2 0.45,0.2 1,0.4 0.05,0 0.15,0.05 1.7,0.45 3.8,0.45 2.15,0 3.8,-0.45 0.05,-0.05 0.15,-0.05 0.55,-0.2 1.1,-0.4 0.15,-0.1 0.35,-0.15 1.05,-0.65 1.65,-1.2 0.1,-0.1 0.15,-0.15 0.7,-0.85 0.9,-1.65 h 5.1 q 5.05,0 6.05,-4.5 0.05,-0.2 0.1,-0.35 0.05,-0.2 0.05,-0.35 0.05,-0.15 0.05,-0.25 0.05,-0.4 0.1,-0.8 0.05,-0.2 0.05,-0.4 0.1,-1.8 0,-3.35 -0.2,-3 -1.15,-5.2 1.3,-1.05 1.2,-2.55 0,-0.3 0,-0.6 0.15,-0.05 0.3,-0.1 0.05,0 0.15,-0.05 2.45,-1 2.1,-2.65 0,-1.95 -1.4,-3.4 l -0.05,-0.05 q -0.75,-0.7 -1.55,-1.05 0,-0.05 0,-0.1 v -0.05 q 0.05,-1.65 0,-3.3 l 4,-0.25 q 2.4,-0.1 3.5,-1.2 1.55,-1.2 1.4,-3.5 -0.05,-0.5 -0.25,-0.9 -0.3,-0.45 -0.7,-0.7 -3.55,-2.25 -7.15,-2.65 l -0.25,-5.05 q 0,-0.45 -0.2,-0.75 -1.15,-5 -7.2,-5.45 z"
             id="path4580"
             inkscape:connector-curvature="0"
             style="fill:#694c39;stroke:none" />
        </g>
      </g>
      <g
         id="g2288"
         transform="matrix(0.26458333,0,0,0.26458333,-891.73097,-102.45654)">
        <g
           id="use2286"
           transform="scale(0.26458333)">
          <path
             d="m 115.5,633.05 q -0.35,-5.1 -3.2,-7.65 h -11.85 q 3.2,7.65 15.05,7.65 z"
             id="path4584"
             inkscape:connector-curvature="0"
             style="fill:#2ecc71;stroke:none" />
          <path
             d="m 85.45,625.4 q -3.65,3.55 -3.1,10.9 0.05,0.65 0.2,1.3 0.05,0.45 0.15,0.75 0.15,0.55 0.4,0.95 1,1.65 3.5,1.65 h 24.5 q 3.4,0 4.1,-2.95 0.05,-0.2 0.1,-0.4 0,-0.15 0.05,-0.35 0.05,-0.45 0.15,-0.95 v -0.05 q 0.1,-1.7 0,-3.2 -11.85,0 -15.05,-7.65 z"
             id="path4586"
             inkscape:connector-curvature="0"
             style="fill:#e74c3c;stroke:none" />
        </g>
      </g>
      <g
         id="g2292"
         transform="matrix(0.26458333,0,0,0.26458333,-891.73097,-102.45654)">
        <g
           id="use2290"
           transform="scale(0.26458333)">
          <path
             d="m 97.9,636.95 q -2.55,0 -4.35,1.5 -1.85,1.45 -1.85,3.55 0,0.15 0.05,0.2 0,0.15 0,0.25 0.1,0.9 1.55,1.65 0.1,0.05 0.25,0.1 0.5,0.2 1.05,0.4 1.5,0.4 3.3,0.4 1.85,0 3.25,-0.4 0.55,-0.2 1.1,-0.4 0.85,-0.5 1.35,-0.95 0.35,-0.4 0.45,-0.8 0,-0.1 0,-0.25 0,-0.05 0,-0.2 0,-2.1 -1.8,-3.55 -1.8,-1.5 -4.35,-1.5 z"
             id="path4590"
             inkscape:connector-curvature="0"
             style="fill:#333333;stroke:none" />
        </g>
      </g>
      <g
         id="g2296"
         transform="matrix(0.26458333,0,0,0.26458333,-891.73097,-102.45654)">
        <g
           id="use2294"
           transform="scale(0.26458333)">
          <path
             d="m 93.9,626.45 q -1,-0.1 -1.7,0.1 -1.2,0.3 -2.3,1.2 -0.3,0.25 -0.55,0.55 -1.45,1.95 -1.15,4.95 0.65,3.4 1.65,3.05 1.1,-0.45 3.3,-0.55 2.15,-0.1 3.75,0.2 1.6,0.3 1.75,-1.2 0,-0.35 0.05,-0.65 0.1,-3.95 -1.35,-5.95 -1.45,-1.5 -3.45,-1.7 z"
             id="path4594"
             inkscape:connector-curvature="0"
             style="fill:#2ecc71;stroke:none" />
        </g>
      </g>
      <g
         id="g2300"
         transform="matrix(0.26458333,0,0,0.26458333,-891.73097,-102.45654)">
        <g
           id="use2298"
           transform="scale(0.26458333)">
          <path
             d="m 90.95,631.2 q -0.9,0.55 -1.35,1.15 -0.8,0.95 -1.2,2.3 -0.5,1.85 0.35,3.6 0.15,0.2 0.3,0.5 0.05,0.15 0.15,0.2 0.7,1.15 2.45,1.1 1.85,0.05 3.8,-1.15 1.95,-1.05 2.9,-2.75 0.85,-1.55 0.25,-2.6 0,-0.1 -0.05,-0.1 -0.05,-0.1 0,-0.15 -0.25,-0.25 -0.4,-0.5 -1.05,-1.65 -2.85,-2.1 -2.4,-0.65 -4.35,0.5 z"
             id="path4598"
             inkscape:connector-curvature="0"
             style="fill:#ffe0b1;stroke:none" />
        </g>
      </g>
      <g
         id="g2304"
         transform="matrix(0.26458333,0,0,0.26458333,-891.73097,-102.45654)">
        <g
           id="use2302"
           transform="scale(0.26458333)">
          <path
             d="M 96.4,603.8 H 85.75 q -1.9,0 -2.95,1.1 -0.9,0.95 -1.1,2.7 -0.5,3.2 -0.65,6.4 -0.05,1.55 0,3.15 0.05,3.7 0.65,7.35 0,0.05 0,0.1 16.4,-2.1 14.7,-20.8 z"
             id="path4602"
             inkscape:connector-curvature="0"
             style="fill:#694c39;stroke:none" />
          <path
             d="m 115.05,613.35 q -0.2,-2.9 -0.55,-5.85 -0.25,-1.65 -1.1,-2.6 -1.05,-1.1 -3.1,-1.1 H 96.4 q 1.7,18.7 -14.7,20.8 0.05,0.4 0.15,0.7 0.15,0.65 0.4,1.1 1,1.8 3.5,1.8 h 24.55 q 3.45,0 4.15,-3.25 0.05,-0.25 0.1,-0.45 0,-0.2 0.05,-0.4 0.4,-3.1 0.5,-6.35 0,-0.3 0,-0.6 0.05,-1.9 -0.05,-3.8 z"
             id="path4604"
             inkscape:connector-curvature="0"
             style="fill:#ffe0b1;stroke:none" />
        </g>
      </g>
      <g
         id="g2308"
         transform="matrix(0.26458333,0,0,0.26458333,-891.73097,-102.45654)">
        <g
           id="use2306"
           transform="scale(0.26458333)">
          <path
             d="m 102.65,620 q 0.6,0.9 1.4,0.9 0.85,0 1.4,-0.9 0.6,-0.8 0.6,-2.15 0,-1.3 -0.6,-2.1 -0.55,-0.9 -1.4,-0.9 -0.8,0 -1.4,0.9 -0.6,0.8 -0.6,2.1 0,1.35 0.6,2.15 z"
             id="path4608"
             inkscape:connector-curvature="0"
             style="fill:#694c39;stroke:none" />
        </g>
      </g>
      <g
         id="g2312"
         transform="matrix(0.26458333,0,0,0.26458333,-891.73097,-102.45654)">
        <g
           id="use2310"
           transform="scale(0.26458333)">
          <path
             d="m 112.05,621.8 q 0,0.45 0.9,0.8 0.9,0.3 2.15,0.3 1.2,0 2.15,-0.3 0.85,-0.35 0.85,-0.8 0,-1.15 -0.85,-2 -0.95,-0.9 -2.15,-0.9 -1.25,0 -2.15,0.9 -0.8,0.85 -0.9,2 z"
             id="path4612"
             inkscape:connector-curvature="0"
             style="fill:#ffe0b1;stroke:none" />
        </g>
      </g>
      <g
         id="g2316"
         transform="matrix(0.26458333,0,0,0.26458333,-891.73097,-102.45654)">
        <g
           id="use2314"
           transform="scale(0.26458333)">
          <path
             d="m 112.05,626.9 q 0.3,0 0.6,0 1.15,-0.05 2,-0.5 0.9,-0.45 0.9,-1.2 0,-1.75 -0.9,-3 -0.85,-1.15 -2,-1.25 -0.3,-0.05 -0.6,-0.05 -2.85,0 -4.95,1.3 -1.85,1.25 -2.05,3 0,0.75 2.05,1.2 2.1,0.5 4.95,0.5 z"
             id="path4616"
             inkscape:connector-curvature="0"
             style="fill:#694c39;stroke:none" />
        </g>
      </g>
      <g
         id="g2320"
         transform="matrix(0.26458333,0,0,0.26458333,-891.73097,-102.45654)">
        <g
           id="use2318"
           transform="scale(0.26458333)">
          <path
             d="m 116,606.5 q -4.1,0.05 -7.9,0.3 -15.9,1.05 -27.9,4.65 0.1,2.45 3.4,2.25 l 37.35,-2.1 q 3.2,-0.15 3.05,-2.6 -4,-2.5 -8,-2.5 z"
             id="path4620"
             inkscape:connector-curvature="0"
             style="fill:#2ecc71;stroke:none" />
          <path
             d="m 115.7,600.5 q -3.3,0.15 -5.55,2.2 -1.9,1.75 -2.05,4.1 3.8,-0.25 7.9,-0.3 z"
             id="path4622"
             inkscape:connector-curvature="0"
             style="fill:#ffffff;stroke:none" />
          <path
             d="m 115.6,599.7 q -0.8,-3.95 -5.5,-4.3 -7.25,-0.7 -14.3,-0.15 -16.7,2.2 -15.75,13.85 0,0.1 0,0.2 l 0.15,2.15 q 12,-3.6 27.9,-4.65 0.15,-2.35 2.05,-4.1 2.25,-2.05 5.55,-2.2 l -0.05,-0.8 z"
             id="path4624"
             inkscape:connector-curvature="0"
             style="fill:#28b162;stroke:none" />
        </g>
      </g>
      <g
         id="g2324"
         transform="matrix(0.26458333,0,0,0.26458333,-891.73097,-102.45654)">
        <g
           id="use2322"
           transform="scale(0.26458333)">
          <path
             d="m 91.5,615.85 q -1.8,0 -3.1,1.1 -1.3,1.2 -1.3,2.85 v 0.15 q 0,1.65 1.3,2.7 1.3,1.25 3.1,1.25 1.85,0 3.2,-1.25 1.3,-1.1 1.3,-2.7 0,-1.8 -1.3,-3 -1.35,-1.1 -3.2,-1.1 z"
             id="path4628"
             inkscape:connector-curvature="0"
             style="fill:#ffe0b1;stroke:none" />
        </g>
      </g>
    </g>
  </g>
</svg>
